<mxfile host="65bd71144e">
    <diagram id="h5uNu8FYblpWKY3KDsLN" name="第 1 页">
        <mxGraphModel dx="1613" dy="946" grid="1" gridSize="10" guides="1" tooltips="1" connect="1" arrows="1" fold="1" page="1" pageScale="1" pageWidth="827" pageHeight="1169" math="0" shadow="0">
            <root>
                <mxCell id="0"/>
                <mxCell id="1" parent="0"/>
                <mxCell id="5" style="edgeStyle=none;html=1;exitX=1;exitY=0.5;exitDx=0;exitDy=0;entryX=0;entryY=0.5;entryDx=0;entryDy=0;fontSize=18;" edge="1" parent="1" source="2" target="4">
                    <mxGeometry relative="1" as="geometry"/>
                </mxCell>
                <mxCell id="20" style="edgeStyle=none;html=1;exitX=0.5;exitY=1;exitDx=0;exitDy=0;entryX=0.5;entryY=0;entryDx=0;entryDy=0;fontSize=14;" edge="1" parent="1" source="2" target="19">
                    <mxGeometry relative="1" as="geometry"/>
                </mxCell>
                <mxCell id="2" value="Vue" style="rounded=0;whiteSpace=wrap;html=1;" vertex="1" parent="1">
                    <mxGeometry x="40" y="250" width="160" height="110" as="geometry"/>
                </mxCell>
                <mxCell id="3" value="Vue类：传入vm组件实例，包含data与挂载容器" style="text;strokeColor=none;fillColor=none;html=1;fontSize=24;fontStyle=1;verticalAlign=middle;align=center;" vertex="1" parent="1">
                    <mxGeometry x="140" y="100" width="430" height="40" as="geometry"/>
                </mxCell>
                <mxCell id="10" style="edgeStyle=none;html=1;exitX=1;exitY=0.5;exitDx=0;exitDy=0;entryX=0;entryY=0.5;entryDx=0;entryDy=0;fontSize=14;" edge="1" parent="1" source="4" target="9">
                    <mxGeometry relative="1" as="geometry"/>
                </mxCell>
                <mxCell id="4" value="Observer" style="rounded=0;whiteSpace=wrap;html=1;fontSize=18;" vertex="1" parent="1">
                    <mxGeometry x="390" y="255" width="180" height="100" as="geometry"/>
                </mxCell>
                <mxCell id="6" value="遍历data属性，对每个属性get、se'tset拦截" style="rounded=0;whiteSpace=wrap;html=1;fontSize=18;" vertex="1" parent="1">
                    <mxGeometry x="230" y="170" width="140" height="100" as="geometry"/>
                </mxCell>
                <mxCell id="13" style="edgeStyle=none;html=1;exitX=0.5;exitY=1;exitDx=0;exitDy=0;entryX=0.5;entryY=0;entryDx=0;entryDy=0;fontSize=14;" edge="1" parent="1" source="9" target="12">
                    <mxGeometry relative="1" as="geometry">
                        <Array as="points">
                            <mxPoint x="760" y="410"/>
                        </Array>
                    </mxGeometry>
                </mxCell>
                <mxCell id="9" value="&lt;font style=&quot;font-size: 14px&quot;&gt;Depender：Watcher收集，发布订阅&lt;/font&gt;" style="rounded=0;whiteSpace=wrap;html=1;fontSize=18;" vertex="1" parent="1">
                    <mxGeometry x="760" y="275" width="120" height="55" as="geometry"/>
                </mxCell>
                <mxCell id="11" value="get依赖收集、set执行依赖，渲染视图" style="rounded=0;whiteSpace=wrap;html=1;fontSize=14;" vertex="1" parent="1">
                    <mxGeometry x="610" y="220" width="120" height="50" as="geometry"/>
                </mxCell>
                <mxCell id="15" style="edgeStyle=none;html=1;exitX=0.5;exitY=0;exitDx=0;exitDy=0;entryX=0.5;entryY=1;entryDx=0;entryDy=0;fontSize=14;" edge="1" parent="1" source="12" target="9">
                    <mxGeometry relative="1" as="geometry">
                        <Array as="points">
                            <mxPoint x="880" y="410"/>
                        </Array>
                    </mxGeometry>
                </mxCell>
                <mxCell id="12" value="Watcher：监听器，监听某个属性执行update" style="rounded=0;whiteSpace=wrap;html=1;fontSize=14;" vertex="1" parent="1">
                    <mxGeometry x="760" y="480" width="120" height="60" as="geometry"/>
                </mxCell>
                <mxCell id="16" value="通知" style="rounded=0;whiteSpace=wrap;html=1;fontSize=14;" vertex="1" parent="1">
                    <mxGeometry x="690" y="400" width="70" height="40" as="geometry"/>
                </mxCell>
                <mxCell id="18" value="订阅" style="rounded=0;whiteSpace=wrap;html=1;fontSize=14;" vertex="1" parent="1">
                    <mxGeometry x="890" y="400" width="70" height="40" as="geometry"/>
                </mxCell>
                <mxCell id="22" value="" style="edgeStyle=none;html=1;fontSize=18;" edge="1" parent="1" source="19" target="21">
                    <mxGeometry relative="1" as="geometry"/>
                </mxCell>
                <mxCell id="19" value="Compiler函数&lt;br&gt;传入组件实例，根据要挂载的组件内容，创建出文档碎片作为虚拟DOM，遍历每个node，分两种情形，一是text节点，用正则提取其中的 {{}}中的内容，从data中获得属性值，注册new Watcher，回调为{{}}内容替换成set中的新值；其二是v-model的node（input），注册watcher设定node.value = newVal，并监听input事件，将e.target.value赋给node.value。&lt;br&gt;" style="rounded=0;whiteSpace=wrap;html=1;fontSize=14;" vertex="1" parent="1">
                    <mxGeometry x="60" y="525" width="340" height="185" as="geometry"/>
                </mxCell>
                <mxCell id="21" value="将文档碎片里的内容挂载到el中。" style="rounded=0;whiteSpace=wrap;html=1;fontSize=18;" vertex="1" parent="1">
                    <mxGeometry x="135" y="810" width="190" height="140" as="geometry"/>
                </mxCell>
                <mxCell id="23" value="订阅通过Depender类上的target属性:&lt;br&gt;在创建watcher时：&lt;br&gt;Depender.target = this;&lt;br&gt;获取下vm中key的属性，触发get&lt;br&gt;Depender.target = null;" style="rounded=0;whiteSpace=wrap;html=1;fontSize=18;" vertex="1" parent="1">
                    <mxGeometry x="970" y="360" width="340" height="190" as="geometry"/>
                </mxCell>
                <mxCell id="24" value="在get中，判断Depender.target，如果存在，则放入依赖数组中；在set中，notify告知watcher，同时注意set一个新值可能为对象，需要继续Observer数据劫持。" style="rounded=0;whiteSpace=wrap;html=1;fontSize=18;" vertex="1" parent="1">
                    <mxGeometry x="670" y="10" width="340" height="190" as="geometry"/>
                </mxCell>
            </root>
        </mxGraphModel>
    </diagram>
</mxfile>